<svg width="256" height="256" viewBox="0 0 100 100" xmlns="http://www.w3.org/2000/svg">
  <defs>
    <mask id="cutout2">
      <rect width="100" height="100" fill="white"/>
      <circle cx="28" cy="50" r="4.5" fill="black"/>
      <!-- A distinct J with a top crossbar, breaking normal symmetry for an explicit initial -->
      <path d="M 44,35 L 66,35 M 58,35 L 58,56 A 7.5,7.5 0 0,1 43,56 L 43,50" fill="none" stroke="black" stroke-width="8.5" stroke-linecap="round"/>
    </mask>
  </defs>
  
  <g mask="url(#cutout2)" fill="#000000">
    <!-- Main Star -->
    <path d="M50,5 C50,38 64,50 95,50 C64,50 50,62 50,95 C50,62 36,50 5,50 C36,50 50,38 50,5 Z"/>
    <!-- Top-left Sparkle -->
    <path d="M25,12 C25,23 29,26 38,26 C29,26 25,29 25,40 C25,29 21,26 12,26 C21,26 25,23 25,12 Z"/>
    <!-- Bottom-left Sparkle -->
    <path d="M30,65 C30,73 33,76 40,76 C33,76 30,79 30,87 C30,79 27,76 20,76 C27,76 30,73 30,65 Z"/>
  </g>
</svg>
