<?xml version="1.0" encoding="utf-8" ?><svg xmlns="http://www.w3.org/2000/svg" xmlns:xlink="http://www.w3.org/1999/xlink" width="1954" height="1954" viewBox="0 0 1954 1954"><path transform="matrix(1.9082 0 0 1.9082 0 -6.10352e-05)" d="M503.166 53.2003C516.071 52.5442 529.62 54.2261 542.146 57.1909C585.804 67.5306 623.631 94.6523 647.436 132.682C643.66 138.074 637.219 145.147 632.849 150.207C624.654 159.559 616.608 169.043 608.717 178.653C592.081 139.899 550.089 111.573 507.888 110.981C477.613 110.559 448.446 122.357 426.979 143.708C402.697 167.552 390.04 199.764 389.776 233.599L389.905 423.881L389.889 481.717C389.87 500.646 389.028 520.782 392.974 539.25C397.811 561.57 408.832 582.078 424.778 598.428C498.747 673.35 615.851 618.16 620.757 517.651C621.272 507.103 621 496.322 620.986 485.75L620.892 443.216C632.245 453.243 643.868 462.96 655.749 472.357C662.452 477.741 670.83 484.158 677.102 489.858C676.864 493.09 676.873 497.042 676.967 500.298C678.379 549.731 664.991 595.465 631.716 632.8C601.763 666.52 559.608 686.916 514.578 689.475C469.385 691.854 425.109 676.116 391.557 645.746C356.442 614.105 335.649 568.605 333.88 521.604C333.174 502.864 333.564 482.462 333.573 463.583L333.603 360.8L333.55 279.159C333.455 249.509 331.894 218.564 338.544 189.621C345.489 159.58 360.004 131.816 380.709 108.968C412.925 73.4774 455.631 55.4999 503.166 53.2003Z"/><path transform="matrix(1.9082 0 0 1.9082 0 -6.10352e-05)" d="M767.913 415.187C783.321 414.127 797.884 425.421 798.167 441.233C798.931 483.94 800.653 527.393 792.664 569.572C775.641 657.949 720.25 734.203 641.466 777.718C632.349 782.956 622.897 787.59 613.172 791.589C606.652 794.264 600.057 796.751 593.393 799.046C559.846 810.474 563.39 802.298 554.461 836.991C545.968 870.741 529.712 902.043 506.987 928.403C469.929 971.224 421.475 994.022 365.372 998.033C358.172 998.143 352.679 997.583 346.34 993.602C339.914 989.629 335.402 983.191 333.859 975.795C332.103 967.548 333.667 958.873 338.399 951.799C346.991 938.955 365.688 940.843 380.027 938.239C440.088 927.332 482.324 883.236 499.217 825.993C504.829 806.979 505.879 787.629 517.932 771.368C530.684 754.164 549.918 753.295 568.889 747.077C579.002 743.763 586.845 740.654 596.574 736.244C639.288 716.761 675.675 685.68 701.595 646.537C720.343 617.141 733 584.28 738.816 549.902C742.785 526.02 742.828 501.688 742.958 477.562C743.089 453.205 735.45 420.879 767.913 415.187Z"/><path transform="matrix(1.9082 0 0 1.9082 0 -6.10352e-05)" d="M237.754 414.645C239.681 414.434 241.693 414.621 243.602 414.934C253.454 416.545 261.376 422.539 264.746 432.072C269.16 444.559 266.697 487.621 267.062 503.659C267.799 535.939 273.392 568.777 284.749 599.065C307.328 659.371 352.62 708.44 410.928 735.769C421.471 740.767 433.685 745.253 444.729 749.019C469.78 757.562 454.788 789.086 450.46 808.317C445.052 807.114 440.917 806.019 435.62 804.455C433.75 804.246 423.903 801.155 421.818 800.471C392.21 790.444 364.199 776.206 338.649 758.196C273.837 712.089 229.904 642.209 216.446 563.817C211.327 534.122 210.643 504.089 211.133 474.043C211.532 449.603 204.987 419.386 237.754 414.645Z"/><path transform="matrix(1.9082 0 0 1.9082 0 -6.10352e-05)" d="M664.462 160.498C666.641 160.556 668.436 160.516 669.456 162.785C673.144 170.991 676.206 179.547 679.433 187.952L694.67 227.219C698.13 236.368 701.813 247.191 705.683 255.978C718.62 261.867 798.326 289.933 803.661 295.683L803.541 296.901C801.307 300.736 789.55 304.423 785.253 306.231C759.427 317.092 731.108 325.585 705.667 337.084C703.888 341.201 702.242 345.839 700.701 350.088C690.765 377.499 679.086 404.544 669.058 431.874C666.482 432.216 666.723 432.576 664.631 431.747C661.619 427.106 658.706 418.609 656.559 413.286C648.503 393.309 641.514 372.883 633.608 352.842C631.547 347.617 629.276 342.509 627.546 337.164C596.216 323.511 562.978 313.079 531.858 298.987C530.262 298.264 530.61 294.599 531.262 294.286C553.743 283.478 578.011 275.668 601.176 266.323C608.394 263.411 620.884 259.776 627.214 255.973C635.503 235.686 643.096 214.013 651.446 193.644C655.624 183.452 659.454 169.995 664.462 160.498Z"/></svg>